<svg width="30" height="30" viewBox="0 0 30 30" fill="none" xmlns="http://www.w3.org/2000/svg">
<path d="M25.2199 11.5032C25.6887 10.8358 26.4592 9.25726 25.2199 7.27679C24.9701 6.86556 24.6279 6.51827 24.2203 6.26253C24.1307 5.79378 23.7785 4.66527 22.3793 3.68968C21.0352 2.75394 19.0734 2.90218 18.7172 2.9391C18.4119 2.84185 18.0955 2.78397 17.7756 2.76683C16.7695 2.71937 15.9961 2.99476 15.4447 3.59007C15.2631 3.79339 15.1132 4.02292 15 4.27093C14.8868 4.02278 14.7367 3.79322 14.5547 3.59007C14.0039 2.99476 13.2152 2.71937 12.225 2.76683C11.9051 2.78426 11.5887 2.84214 11.2834 2.9391C10.9289 2.90218 8.96484 2.75394 7.61719 3.69144C6.2168 4.66761 5.86465 5.80081 5.77559 6.26488C5.36953 6.52106 5.02854 6.86807 4.77949 7.27855C3.54141 9.25902 4.31426 10.8375 4.77949 11.5055C4.2082 11.9942 3.1459 13.1391 3.42832 14.7082C3.62051 15.7746 4.23926 16.5944 5.10879 16.9711C5.41699 17.2213 7.08516 18.4131 10.7561 18.4494V21.4008H9.45527C9.35825 20.9285 9.08938 20.509 8.70076 20.2236C8.31215 19.9383 7.83143 19.8072 7.35175 19.856C6.87206 19.9048 6.42755 20.1298 6.10431 20.4876C5.78107 20.8454 5.60212 21.3104 5.60212 21.7925C5.60212 22.2747 5.78107 22.7397 6.10431 23.0974C6.42755 23.4552 6.87206 23.6803 7.35175 23.729C7.83143 23.7778 8.31215 23.6468 8.70076 23.3614C9.08938 23.076 9.35825 22.6565 9.45527 22.1842H11.1492C11.201 22.1845 11.2523 22.1746 11.3001 22.1549C11.348 22.1353 11.3915 22.1063 11.4281 22.0698C11.4647 22.0332 11.4937 21.9898 11.5135 21.9419C11.5332 21.8941 11.5432 21.8428 11.543 21.791V18.4407H11.5594C11.5734 18.4407 11.5852 18.433 11.5986 18.4313C11.7215 18.4531 11.8455 18.4672 11.9701 18.4735C13.2908 18.4735 14.0947 18.0739 14.5893 17.4856V23.3924C14.1181 23.4948 13.7018 23.7684 13.4208 24.1602C13.1398 24.552 13.0143 25.0341 13.0685 25.5132C13.1226 25.9923 13.3527 26.4342 13.714 26.7534C14.0754 27.0726 14.5423 27.2463 15.0244 27.2409C15.5065 27.2355 15.9695 27.0513 16.3236 26.7241C16.6777 26.3969 16.8978 25.95 16.9412 25.4698C16.9846 24.9896 16.8483 24.5104 16.5586 24.125C16.2689 23.7396 15.8466 23.4754 15.3732 23.3836V17.4299C15.8631 18.0481 16.6734 18.4735 18.034 18.4735C18.159 18.4672 18.2834 18.4531 18.4066 18.4313C18.4201 18.4313 18.4318 18.4401 18.4459 18.4407H18.457V21.791C18.457 21.8425 18.4672 21.8934 18.4869 21.941C18.5066 21.9885 18.5355 22.0317 18.5719 22.068C18.6083 22.1044 18.6515 22.1332 18.6991 22.1528C18.7466 22.1725 18.7976 22.1825 18.849 22.1825H20.5424C20.6394 22.6547 20.9083 23.0742 21.2969 23.3596C21.6855 23.645 22.1662 23.776 22.6459 23.7273C23.1256 23.6785 23.5701 23.4534 23.8933 23.0957C24.2166 22.7379 24.3955 22.2729 24.3955 21.7908C24.3955 21.3086 24.2166 20.8436 23.8933 20.4858C23.5701 20.1281 23.1256 19.903 22.6459 19.8543C22.1662 19.8055 21.6855 19.9365 21.2969 20.2219C20.9083 20.5073 20.6394 20.9268 20.5424 21.3991H19.2428V18.4477C22.9113 18.4114 24.5795 17.2207 24.8895 16.97C25.7596 16.5938 26.3777 15.7729 26.5699 14.7065C26.8535 13.1373 25.7912 11.9924 25.2199 11.5032ZM7.54863 22.9535C7.31855 22.9537 7.09359 22.8855 6.90224 22.7578C6.71088 22.63 6.56171 22.4484 6.47361 22.2358C6.3855 22.0233 6.36242 21.7894 6.40728 21.5637C6.45214 21.338 6.56293 21.1307 6.72562 20.968C6.88832 20.8053 7.09561 20.6946 7.32128 20.6497C7.54696 20.6048 7.78086 20.6279 7.99341 20.716C8.20596 20.8041 8.3876 20.9533 8.51536 21.1447C8.64312 21.336 8.71125 21.561 8.71113 21.791C8.71067 22.0992 8.58804 22.3946 8.37013 22.6125C8.15222 22.8305 7.8568 22.9531 7.54863 22.9535ZM22.4508 20.628C22.6808 20.6278 22.9058 20.696 23.0971 20.8237C23.2885 20.9514 23.4376 21.133 23.5258 21.3456C23.6139 21.5581 23.637 21.7919 23.5922 22.0176C23.5474 22.2433 23.4366 22.4505 23.274 22.6133C23.1114 22.776 22.9041 22.8868 22.6785 22.9317C22.4529 22.9767 22.219 22.9537 22.0064 22.8657C21.7938 22.7776 21.6122 22.6286 21.4843 22.4373C21.3565 22.246 21.2883 22.0211 21.2883 21.791C21.2884 21.4827 21.4109 21.1871 21.6289 20.969C21.8469 20.7509 22.1425 20.6283 22.4508 20.628ZM23.2816 5.88636C22.384 5.68597 21.4313 5.85706 20.6982 6.12074C20.7152 5.48851 20.6227 4.55101 20.0537 3.81917C20.0232 3.77992 19.9828 3.75179 19.9506 3.71488C20.5816 3.76644 21.3451 3.92113 21.9334 4.33128C22.7115 4.87562 23.0906 5.4557 23.2816 5.88636ZM8.06777 4.33246C8.65371 3.9223 9.41543 3.76996 10.0494 3.71781C10.0172 3.75414 9.97734 3.78167 9.94746 3.82093C9.37793 4.55277 9.28535 5.48968 9.30293 6.12191C8.57051 5.85706 7.61719 5.68656 6.71836 5.88753C6.90879 5.45628 7.28789 4.87621 8.06777 4.33246ZM11.9678 17.6918C11.2693 17.6918 10.7818 17.4311 10.5955 16.9577C10.415 16.4989 10.5492 15.903 10.9078 15.5684C11.2248 15.2754 11.6467 15.2397 12.1266 15.47C12.2203 15.515 12.328 15.521 12.4262 15.4866C12.5243 15.4522 12.6047 15.3803 12.6498 15.2866C12.6949 15.1929 12.7009 15.0851 12.6665 14.987C12.6321 14.8888 12.5601 14.8084 12.4664 14.7633C12.2192 14.6473 11.9525 14.5785 11.6801 14.5606C11.7973 14.3527 11.8789 14.1268 11.9215 13.892C11.9292 13.8412 11.9268 13.7893 11.9144 13.7394C11.9021 13.6894 11.88 13.6424 11.8495 13.601C11.819 13.5596 11.7806 13.5246 11.7365 13.498C11.6925 13.4715 11.6436 13.4538 11.5928 13.4461C11.5419 13.4384 11.49 13.4408 11.4401 13.4532C11.3902 13.4655 11.3432 13.4876 11.3017 13.5181C11.2603 13.5487 11.2254 13.587 11.1988 13.6311C11.1722 13.6751 11.1546 13.724 11.1469 13.7748C11.083 14.1961 10.6195 14.7545 10.4484 14.9344C10.4449 14.9385 10.4437 14.9438 10.4396 14.9485C10.4191 14.966 10.3939 14.9743 10.3734 14.993C9.78281 15.542 9.57012 16.4883 9.86602 17.243C9.92874 17.3871 10.0099 17.5224 10.1074 17.6455C8.72168 17.5705 7.68809 17.318 6.96152 17.0537C7.3847 16.9132 7.76301 16.6629 8.05781 16.3284C8.12121 16.2499 8.15191 16.1501 8.14351 16.0496C8.1351 15.9491 8.08824 15.8558 8.0127 15.789C7.93715 15.7222 7.83875 15.6872 7.73799 15.6911C7.63724 15.6951 7.54191 15.7378 7.47187 15.8104C7.25196 16.0608 6.96526 16.2434 6.64535 16.3368C6.32543 16.4302 5.98553 16.4305 5.66543 16.3377C4.91133 16.128 4.36523 15.4653 4.20059 14.5659C3.98613 13.3764 4.86738 12.46 5.30918 12.0838C5.53945 12.2842 5.89512 12.5567 6.29062 12.7084C6.33573 12.7256 6.38356 12.7346 6.43184 12.7348C6.52327 12.7346 6.61176 12.7025 6.68201 12.644C6.75226 12.5855 6.79985 12.5042 6.81653 12.4143C6.83322 12.3245 6.81796 12.2316 6.77339 12.1517C6.72882 12.0719 6.65774 12.0101 6.57246 11.9772C6.08379 11.7903 5.625 11.3086 5.61914 11.3016C5.61328 11.2946 5.61445 11.3016 5.6127 11.2969C5.61173 11.295 5.61055 11.2933 5.60918 11.2916C5.55059 11.233 4.13848 9.7805 5.44336 7.69222C6.72773 5.63675 9.4582 7.03421 9.5748 7.09456C9.64042 7.1289 9.71441 7.14395 9.78822 7.13797C9.86203 7.13199 9.93264 7.10523 9.99187 7.06078C10.0511 7.01632 10.0965 6.95601 10.1229 6.88681C10.1492 6.8176 10.1555 6.74235 10.1408 6.66976C10.1408 6.65511 9.85605 5.21371 10.5656 4.3014C10.9248 3.84027 11.4955 3.58773 12.2648 3.54964C13.0055 3.50863 13.592 3.70433 13.9805 4.12035C14.4727 4.65121 14.5898 5.44925 14.6045 5.98656C14.5954 6.01511 14.5895 6.04459 14.5869 6.07445C14.5869 6.7846 14.3889 7.27386 14.0145 7.48949C13.6793 7.68402 13.2346 7.63539 12.9867 7.48949C12.6018 7.26683 12.382 7.03011 12.3516 6.8057C12.3193 6.56488 12.5104 6.36097 12.5203 6.35101C12.5933 6.278 12.6345 6.17915 12.635 6.07593C12.6356 5.9727 12.5954 5.87344 12.5231 5.79968C12.4509 5.72592 12.3525 5.68363 12.2493 5.68197C12.1461 5.68032 12.0464 5.71945 11.9719 5.79085C11.9227 5.8389 11.4967 6.27308 11.5729 6.89652C11.6314 7.38226 11.9766 7.80999 12.5941 8.16742C12.8751 8.32145 13.1908 8.40093 13.5111 8.39828C13.825 8.40023 14.1338 8.31939 14.4064 8.1639C14.4693 8.12734 14.5295 8.08663 14.5869 8.04203V11.7393C14.5007 11.6415 14.4086 11.5491 14.3109 11.4627C13.4789 10.745 12.2801 10.4409 10.7367 10.5604C10.2488 10.5909 9.77513 10.7374 9.35508 10.9875C9.33401 10.9812 9.31245 10.9767 9.29062 10.9741C9.28066 10.9741 8.32031 10.95 7.72031 9.95277C7.40273 9.42542 7.73789 8.66371 7.74082 8.6555C7.76948 8.56404 7.76364 8.46525 7.72441 8.37781C7.68517 8.29036 7.61526 8.22032 7.52788 8.18093C7.44051 8.14154 7.34173 8.13552 7.25022 8.16401C7.15871 8.19251 7.08081 8.25354 7.03125 8.33558C7.01074 8.38187 6.51973 9.47874 7.05176 10.3618C7.40395 10.9666 7.96747 11.4197 8.63379 11.6338C7.98281 12.4541 7.81348 13.5539 7.85156 14.2641C7.85724 14.3639 7.90088 14.4579 7.97353 14.5266C8.04619 14.5953 8.14237 14.6337 8.24238 14.6338H8.26172C8.31315 14.6311 8.36352 14.6182 8.40996 14.5959C8.45639 14.5736 8.49797 14.5424 8.53232 14.504C8.56667 14.4656 8.5931 14.4209 8.61011 14.3723C8.62712 14.3236 8.63437 14.2722 8.63144 14.2207C8.625 14.1112 8.5084 11.5254 10.7994 11.3467C14.3098 11.0743 14.5746 13.3547 14.5898 13.4942V14.0889C14.5898 16.2639 14.4047 17.6901 11.9678 17.6901V17.6918ZM16.1631 25.2938C16.1629 25.5238 16.0944 25.7485 15.9665 25.9396C15.8386 26.1308 15.6568 26.2796 15.4443 26.3675C15.2317 26.4553 14.9979 26.4782 14.7724 26.4332C14.5468 26.3882 14.3397 26.2773 14.1772 26.1146C14.0146 25.9519 13.904 25.7447 13.8592 25.5191C13.8144 25.2935 13.8375 25.0597 13.9256 24.8472C14.0136 24.6348 14.1627 24.4532 14.3539 24.3255C14.5452 24.1977 14.77 24.1295 15 24.1295C15.3083 24.1298 15.6038 24.2524 15.8219 24.4703C16.0399 24.6882 16.1626 24.9838 16.1631 25.292V25.2938ZM25.7988 14.5711C25.6371 15.47 25.0904 16.1321 24.3369 16.3424C24.0167 16.4349 23.6768 16.4344 23.3569 16.341C23.0369 16.2476 22.7501 16.0652 22.5299 15.8151C22.4598 15.7425 22.3645 15.6998 22.2638 15.6958C22.163 15.6918 22.0646 15.7269 21.9891 15.7937C21.9135 15.8605 21.8667 15.9538 21.8583 16.0543C21.8498 16.1548 21.8805 16.2546 21.9439 16.333C22.239 16.6639 22.6159 16.9115 23.0367 17.0508C22.3096 17.3145 21.276 17.567 19.8926 17.642C19.9901 17.5191 20.071 17.384 20.1334 17.2401C20.4299 16.4854 20.2172 15.5409 19.626 14.9901C19.6061 14.9713 19.5809 14.9631 19.5604 14.9455C19.5563 14.9409 19.5551 14.9356 19.551 14.9315C19.3781 14.7516 18.9164 14.1932 18.8531 13.7719C18.8364 13.6698 18.7805 13.5783 18.6974 13.5167C18.6142 13.4551 18.5104 13.4283 18.4078 13.442C18.305 13.4575 18.2126 13.5132 18.1508 13.5968C18.0891 13.6804 18.0631 13.7851 18.0785 13.8879C18.1209 14.1226 18.2023 14.3486 18.3193 14.5565C18.047 14.5741 17.7805 14.6429 17.5336 14.7592C17.4395 14.804 17.367 14.8843 17.3321 14.9825C17.2973 15.0806 17.3028 15.1887 17.3476 15.2827C17.3923 15.3768 17.4726 15.4493 17.5708 15.4842C17.669 15.5191 17.777 15.5135 17.8711 15.4688C18.3504 15.2385 18.7729 15.2719 19.0893 15.5672C19.4484 15.9 19.5826 16.4977 19.4016 16.9565C19.2158 17.4299 18.7283 17.6907 18.0293 17.6907C15.5936 17.6907 15.4113 16.2645 15.4113 14.0895V13.4977C15.4934 12.9396 15.7736 12.4296 16.2006 12.061C16.8686 11.4844 17.8746 11.2448 19.1971 11.3467C21.4781 11.5225 21.3709 14.1118 21.365 14.2219C21.3599 14.3254 21.396 14.4266 21.4655 14.5035C21.5349 14.5804 21.6319 14.6266 21.7354 14.6321H21.757C21.857 14.6319 21.9531 14.5935 22.0257 14.5248C22.0982 14.456 22.1417 14.3621 22.1473 14.2623C22.1865 13.5522 22.016 12.4512 21.3645 11.6321C22.0308 11.418 22.5944 10.9649 22.9465 10.36C23.4785 9.47699 22.9875 8.38011 22.967 8.33382C22.9236 8.2396 22.8446 8.16644 22.7473 8.13036C22.6501 8.09427 22.5424 8.09822 22.4481 8.14133C22.3537 8.18444 22.2803 8.2632 22.2439 8.36034C22.2075 8.45749 22.2111 8.5651 22.2539 8.6596C22.2574 8.66722 22.5914 9.43128 22.275 9.9557C21.682 10.9383 20.7416 10.9758 20.7041 10.977C20.682 10.9795 20.6602 10.9842 20.6391 10.991C20.2192 10.7404 19.7455 10.5937 19.2574 10.5633C17.7176 10.4432 16.5188 10.7479 15.6867 11.4657C15.5886 11.5521 15.496 11.6447 15.4096 11.7428V8.0432C15.4679 8.08818 15.5289 8.12948 15.5924 8.16683C15.865 8.32232 16.1738 8.40316 16.4877 8.40121C16.8082 8.40375 17.1241 8.32428 17.4053 8.17035C18.0223 7.81292 18.365 7.38519 18.426 6.89945C18.5021 6.27601 18.0744 5.84476 18.027 5.79378C17.9524 5.72129 17.852 5.6814 17.748 5.68288C17.644 5.68436 17.5449 5.7271 17.4724 5.80169C17.3999 5.87629 17.36 5.97662 17.3615 6.08063C17.3629 6.18463 17.4057 6.28379 17.4803 6.35628C17.4803 6.35628 17.6771 6.56371 17.6473 6.80335C17.6197 7.02953 17.4 7.26742 17.0127 7.49242C16.7637 7.63597 16.3195 7.68402 15.9844 7.49242C15.61 7.27679 15.4119 6.78929 15.4119 6.07738C15.4095 6.04605 15.4032 6.01515 15.3932 5.98539C15.4096 5.45804 15.5238 4.65706 16.0201 4.12386C16.4068 3.70726 16.9928 3.51156 17.7352 3.55257C18.5016 3.59007 19.0717 3.84554 19.4297 4.3014C20.1381 5.20785 19.8609 6.65863 19.858 6.67328C19.8437 6.74577 19.8502 6.82082 19.8767 6.8898C19.9032 6.95877 19.9486 7.01887 20.0078 7.06318C20.0669 7.10749 20.1373 7.13422 20.211 7.14029C20.2846 7.14636 20.3584 7.13153 20.424 7.09749C20.5412 7.0389 23.2699 5.63734 24.5555 7.69515C25.8598 9.78343 24.45 11.2336 24.3902 11.2928C24.3902 11.2928 24.3902 11.2981 24.3855 11.2998C24.3809 11.3016 24.3814 11.2998 24.3797 11.3045C24.2525 11.4399 23.8348 11.8237 23.4258 11.9813C23.3405 12.0142 23.2694 12.076 23.2249 12.1558C23.1803 12.2357 23.165 12.3286 23.1817 12.4184C23.1984 12.5083 23.246 12.5896 23.3162 12.6481C23.3865 12.7066 23.475 12.7387 23.5664 12.7389C23.6147 12.7387 23.6625 12.7297 23.7076 12.7125C24.1014 12.5608 24.4588 12.2883 24.6885 12.0879C25.132 12.4612 26.0156 13.3776 25.7988 14.5676V14.5711Z" fill="black"/>
</svg>
