<svg width="30" height="30" viewBox="0 0 30 30" fill="none" xmlns="http://www.w3.org/2000/svg">
<path d="M10.6758 15.9258V17.1363H20.2617V15.9258C20.2605 14.8467 19.8313 13.8122 19.0683 13.0493C18.3053 12.2863 17.2708 11.8571 16.1918 11.8558H14.7469C13.6676 11.8568 12.6329 12.2858 11.8696 13.0488C11.1064 13.8119 10.677 14.8465 10.6758 15.9258Z" fill="black"/>
<path d="M15.7453 11.386C16.4182 11.3151 17.0382 10.9888 17.4775 10.4743C17.9168 9.95975 18.142 9.29625 18.1065 8.62061C18.071 7.94497 17.7777 7.30869 17.2869 6.84299C16.7961 6.37729 16.1453 6.11768 15.4687 6.11768C14.7922 6.11768 14.1414 6.37729 13.6506 6.84299C13.1598 7.30869 12.8664 7.94497 12.831 8.62061C12.7955 9.29625 13.0206 9.95975 13.46 10.4743C13.8993 10.9888 14.5193 11.3151 15.1922 11.386H15.7453Z" fill="black"/>
<path d="M16.1906 11.8547H15.1359C16.2154 11.8557 17.2503 12.2849 18.0136 13.0482C18.7769 13.8114 19.2061 14.8464 19.207 15.9258V17.1364H20.2617V15.9258C20.2608 14.8464 19.8316 13.8114 19.0683 13.0482C18.305 12.2849 17.27 11.8557 16.1906 11.8547Z" fill="black"/>
<path d="M15.4688 6.11951C15.2916 6.11937 15.115 6.13704 14.9414 6.17224C15.5377 6.29393 16.0736 6.61788 16.4586 7.08928C16.8435 7.56068 17.0537 8.15057 17.0537 8.75916C17.0537 9.36774 16.8435 9.95763 16.4586 10.429C16.0736 10.9004 15.5377 11.2244 14.9414 11.3461C15.0242 11.3625 15.1082 11.3754 15.1934 11.3847H15.7465C16.4178 11.3123 17.0359 10.9855 17.4736 10.4713C17.9113 9.95723 18.1355 9.29494 18.0999 8.62066C18.0643 7.94638 17.7718 7.31135 17.2824 6.84614C16.793 6.38093 16.144 6.1209 15.4688 6.11951Z" fill="black"/>
<path d="M28.8281 10.3325H26.4844C26.4067 10.3325 26.3322 10.3633 26.2772 10.4183C26.2223 10.4732 26.1914 10.5477 26.1914 10.6254C26.1914 10.7031 26.2223 10.7777 26.2772 10.8326C26.3322 10.8875 26.4067 10.9184 26.4844 10.9184H28.125L21.9668 17.0766H20.3262V15.9258C20.3247 14.8763 19.9648 13.8587 19.3061 13.0416C18.6474 12.2245 17.7293 11.6569 16.7039 11.4329C17.2816 11.0651 17.7243 10.5199 17.9657 9.87903C18.2071 9.23818 18.234 8.53633 18.0425 7.87887C17.851 7.22141 17.4513 6.64383 16.9036 6.23286C16.3558 5.8219 15.6895 5.59973 15.0047 5.59973C14.3199 5.59973 13.6536 5.8219 13.1058 6.23286C12.5581 6.64383 12.1584 7.22141 11.9669 7.87887C11.7754 8.53633 11.8023 9.23818 12.0437 9.87903C12.2851 10.5199 12.7278 11.0651 13.3055 11.4329C12.2795 11.6562 11.3606 12.2235 10.7011 13.0407C10.0417 13.8578 9.68131 14.8758 9.67969 15.9258V17.0778H7.91602C7.87752 17.0777 7.83939 17.0852 7.80379 17.0999C7.7682 17.1146 7.73585 17.1361 7.7086 17.1633L0.964457 23.9063C0.937218 23.9335 0.915611 23.9659 0.900869 24.0015C0.886127 24.0371 0.87854 24.0752 0.87854 24.1137C0.87854 24.1522 0.886127 24.1904 0.900869 24.226C0.915611 24.2616 0.937218 24.2939 0.964457 24.3211C0.991696 24.3484 1.02403 24.37 1.05962 24.3847C1.09521 24.3995 1.13336 24.4071 1.17188 24.4071C1.2104 24.4071 1.24855 24.3995 1.28413 24.3847C1.31972 24.37 1.35206 24.3484 1.3793 24.3211L8.03789 17.6626H22.084C22.1225 17.6626 22.1606 17.6551 22.1962 17.6404C22.2318 17.6257 22.2642 17.6042 22.2914 17.577L28.5352 11.3333V12.9739C28.5352 13.0516 28.566 13.1261 28.621 13.181C28.6759 13.236 28.7504 13.2669 28.8281 13.2669C28.9058 13.2669 28.9803 13.236 29.0353 13.181C29.0902 13.1261 29.1211 13.0516 29.1211 12.9739V10.6301C29.1217 10.5913 29.1146 10.5527 29.1002 10.5166C29.0857 10.4805 29.0642 10.4476 29.037 10.4199C29.0097 10.3922 28.9772 10.3702 28.9413 10.3552C28.9055 10.3402 28.867 10.3325 28.8281 10.3325ZM12.4219 8.76099C12.4227 8.26312 12.5677 7.77615 12.8394 7.3589C13.111 6.94165 13.4976 6.61198 13.9525 6.4097C14.4075 6.20742 14.9112 6.14119 15.403 6.21901C15.8947 6.29684 16.3534 6.51538 16.7237 6.84824C17.0939 7.18111 17.3599 7.61406 17.4894 8.09479C17.6189 8.57552 17.6064 9.08346 17.4535 9.55727C17.3006 10.0311 17.0138 10.4505 16.6277 10.7648C16.2416 11.0791 15.7727 11.2749 15.2777 11.3286H14.7305C14.0969 11.2604 13.5108 10.9606 13.0847 10.4867C12.6586 10.0128 12.4226 9.39826 12.4219 8.76099ZM19.7379 17.0813H10.2656V15.9258C10.2669 14.8623 10.6899 13.8428 11.4419 13.0908C12.1939 12.3388 13.2135 11.9157 14.277 11.9145H15.7219C16.7856 11.9154 17.8054 12.3383 18.5577 13.0904C19.31 13.8424 19.7331 14.8621 19.7344 15.9258L19.7379 17.0813Z" fill="black"/>
<path d="M19.3359 4.57031H18.8672V4.10156C18.8672 4.07048 18.8548 4.04068 18.8329 4.0187C18.8109 3.99672 18.7811 3.98438 18.75 3.98438C18.7189 3.98438 18.6891 3.99672 18.6671 4.0187C18.6452 4.04068 18.6328 4.07048 18.6328 4.10156V4.57031H18.1641C18.133 4.57031 18.1032 4.58266 18.0812 4.60464C18.0592 4.62661 18.0469 4.65642 18.0469 4.6875C18.0469 4.71858 18.0592 4.74839 18.0812 4.77036C18.1032 4.79234 18.133 4.80469 18.1641 4.80469H18.6328V5.27344C18.6328 5.30452 18.6452 5.33432 18.6671 5.3563C18.6891 5.37828 18.7189 5.39062 18.75 5.39062C18.7811 5.39062 18.8109 5.37828 18.8329 5.3563C18.8548 5.33432 18.8672 5.30452 18.8672 5.27344V4.80469H19.3359C19.367 4.80469 19.3968 4.79234 19.4188 4.77036C19.4408 4.74839 19.4531 4.71858 19.4531 4.6875C19.4531 4.65642 19.4408 4.62661 19.4188 4.60464C19.3968 4.58266 19.367 4.57031 19.3359 4.57031Z" fill="black"/>
<path d="M13.6723 20.6121H13.2035V20.1433C13.2035 20.1122 13.1912 20.0824 13.1692 20.0604C13.1472 20.0385 13.1174 20.0261 13.0863 20.0261C13.0553 20.0261 13.0254 20.0385 13.0035 20.0604C12.9815 20.0824 12.9691 20.1122 12.9691 20.1433V20.6121H12.5004C12.4693 20.6121 12.4395 20.6244 12.4175 20.6464C12.3956 20.6684 12.3832 20.6982 12.3832 20.7292C12.3832 20.7603 12.3956 20.7901 12.4175 20.8121C12.4395 20.8341 12.4693 20.8464 12.5004 20.8464H12.9691V21.3152C12.9691 21.3463 12.9815 21.3761 13.0035 21.398C13.0254 21.42 13.0553 21.4324 13.0863 21.4324C13.1174 21.4324 13.1472 21.42 13.1692 21.398C13.1912 21.3761 13.2035 21.3463 13.2035 21.3152V20.8464H13.6723C13.7034 20.8464 13.7332 20.8341 13.7551 20.8121C13.7771 20.7901 13.7895 20.7603 13.7895 20.7292C13.7895 20.6982 13.7771 20.6684 13.7551 20.6464C13.7332 20.6244 13.7034 20.6121 13.6723 20.6121Z" fill="black"/>
<path d="M24.7266 19.9089H24.2578V19.4402C24.2578 19.4091 24.2455 19.3793 24.2235 19.3573C24.2015 19.3353 24.1717 19.323 24.1406 19.323C24.1095 19.323 24.0797 19.3353 24.0578 19.3573C24.0358 19.3793 24.0234 19.4091 24.0234 19.4402V19.9089H23.5547C23.5236 19.9089 23.4938 19.9213 23.4718 19.9433C23.4498 19.9652 23.4375 19.995 23.4375 20.0261C23.4375 20.0572 23.4498 20.087 23.4718 20.109C23.4938 20.131 23.5236 20.1433 23.5547 20.1433H24.0234V20.6121C24.0234 20.6431 24.0358 20.6729 24.0578 20.6949C24.0797 20.7169 24.1095 20.7292 24.1406 20.7292C24.1717 20.7292 24.2015 20.7169 24.2235 20.6949C24.2455 20.6729 24.2578 20.6431 24.2578 20.6121V20.1433H24.7266C24.7576 20.1433 24.7874 20.131 24.8094 20.109C24.8314 20.087 24.8438 20.0572 24.8438 20.0261C24.8438 19.995 24.8314 19.9652 24.8094 19.9433C24.7874 19.9213 24.7576 19.9089 24.7266 19.9089Z" fill="black"/>
<path d="M8.51602 8.90625H8.04727V8.4375C8.04727 8.40642 8.03493 8.37661 8.01295 8.35464C7.99097 8.33266 7.96116 8.32031 7.93008 8.32031C7.899 8.32031 7.8692 8.33266 7.84722 8.35464C7.82524 8.37661 7.8129 8.40642 7.8129 8.4375V8.90625H7.34415C7.31307 8.90625 7.28326 8.9186 7.26128 8.94057C7.23931 8.96255 7.22696 8.99236 7.22696 9.02344C7.22696 9.05452 7.23931 9.08432 7.26128 9.1063C7.28326 9.12828 7.31307 9.14062 7.34415 9.14062H7.8129V9.60938C7.8129 9.64046 7.82524 9.67026 7.84722 9.69224C7.8692 9.71422 7.899 9.72656 7.93008 9.72656C7.96116 9.72656 7.99097 9.71422 8.01295 9.69224C8.03493 9.67026 8.04727 9.64046 8.04727 9.60938V9.14062H8.51602C8.5471 9.14062 8.57691 9.12828 8.59889 9.1063C8.62086 9.08432 8.63321 9.05452 8.63321 9.02344C8.63321 8.99236 8.62086 8.96255 8.59889 8.94057C8.57691 8.9186 8.5471 8.90625 8.51602 8.90625Z" fill="black"/>
<path d="M24.1406 12.3176C24.0016 12.3176 23.8656 12.2764 23.75 12.1991C23.6344 12.1219 23.5442 12.0121 23.491 11.8836C23.4378 11.7551 23.4239 11.6137 23.451 11.4773C23.4781 11.3409 23.5451 11.2157 23.6434 11.1173C23.7418 11.019 23.8671 10.952 24.0035 10.9249C24.1398 10.8978 24.2812 10.9117 24.4097 10.9649C24.5382 11.0181 24.648 11.1082 24.7253 11.2239C24.8025 11.3395 24.8437 11.4754 24.8437 11.6145C24.8437 11.801 24.7697 11.9798 24.6378 12.1117C24.5059 12.2435 24.3271 12.3176 24.1406 12.3176ZM24.1406 11.1458C24.0479 11.1458 23.9573 11.1732 23.8802 11.2248C23.8031 11.2763 23.743 11.3495 23.7076 11.4351C23.6721 11.5208 23.6628 11.615 23.6809 11.706C23.699 11.7969 23.7436 11.8804 23.8092 11.946C23.8747 12.0115 23.9582 12.0562 24.0492 12.0742C24.1401 12.0923 24.2344 12.083 24.32 12.0476C24.4057 12.0121 24.4789 11.952 24.5304 11.8749C24.5819 11.7978 24.6094 11.7072 24.6094 11.6145C24.6094 11.4902 24.56 11.371 24.4721 11.283C24.3842 11.1951 24.2649 11.1458 24.1406 11.1458Z" fill="black"/>
<path d="M6.21094 16.0547H5.90742L6.12188 15.8402C6.14107 15.8178 6.15111 15.789 6.14997 15.7595C6.14883 15.73 6.1366 15.702 6.11573 15.6811C6.09486 15.6603 6.06688 15.648 6.03739 15.6469C6.0079 15.6458 5.97906 15.6558 5.95664 15.675L5.74219 15.8895V15.5859C5.74219 15.5549 5.72984 15.5251 5.70786 15.5031C5.68589 15.4811 5.65608 15.4688 5.625 15.4688C5.59392 15.4688 5.56411 15.4811 5.54214 15.5031C5.52016 15.5251 5.50781 15.5549 5.50781 15.5859V15.8895L5.29336 15.675C5.27094 15.6558 5.2421 15.6458 5.21261 15.6469C5.18312 15.648 5.15514 15.6603 5.13427 15.6811C5.1134 15.702 5.10117 15.73 5.10003 15.7595C5.09889 15.789 5.10893 15.8178 5.12812 15.8402L5.34258 16.0547H5.03906C5.00798 16.0547 4.97818 16.067 4.9562 16.089C4.93422 16.111 4.92188 16.1408 4.92188 16.1719C4.92188 16.203 4.93422 16.2328 4.9562 16.2547C4.97818 16.2767 5.00798 16.2891 5.03906 16.2891H5.34258L5.12812 16.5035C5.10893 16.5259 5.09889 16.5548 5.10003 16.5843C5.10117 16.6138 5.1134 16.6417 5.13427 16.6626C5.15514 16.6835 5.18312 16.6957 5.21261 16.6968C5.2421 16.698 5.27094 16.6879 5.29336 16.6688L5.50781 16.4543V16.7578C5.50781 16.7889 5.52016 16.8187 5.54214 16.8407C5.56411 16.8627 5.59392 16.875 5.625 16.875C5.65608 16.875 5.68589 16.8627 5.70786 16.8407C5.72984 16.8187 5.74219 16.7889 5.74219 16.7578V16.4543L5.95664 16.6688C5.97906 16.6879 6.0079 16.698 6.03739 16.6968C6.06688 16.6957 6.09486 16.6835 6.11573 16.6626C6.1366 16.6417 6.14883 16.6138 6.14997 16.5843C6.15111 16.5548 6.14107 16.5259 6.12188 16.5035L5.90742 16.2891H6.21094C6.24202 16.2891 6.27182 16.2767 6.2938 16.2547C6.31578 16.2328 6.32812 16.203 6.32812 16.1719C6.32812 16.1408 6.31578 16.111 6.2938 16.089C6.27182 16.067 6.24202 16.0547 6.21094 16.0547Z" fill="black"/>
</svg>
