<svg width="23" height="30" viewBox="0 0 23 30" fill="none" xmlns="http://www.w3.org/2000/svg">
<path d="M16.425 9.29989V7.23739C16.35 4.38739 13.95 2.09989 11.1 2.17489C8.3625 2.24989 6.15 4.46239 6.075 7.23739V9.29989H1.95V27.9749H20.625V9.29989H16.425ZM7.1625 7.23739C7.2375 4.98739 9.1125 3.22489 11.3625 3.29989C13.5 3.37489 15.225 5.09989 15.3 7.23739V9.29989H7.1625V7.23739ZM19.4625 26.8499H3.0375V10.4249H19.4625V26.8499Z" fill="black"/>
<path d="M11.1375 18.6375C10.0875 18.6375 9.225 19.5 9.225 20.55C9.225 21.375 9.75 22.0875 10.5375 22.35V24.4499C10.5375 24.7874 10.8 25.05 11.1375 25.05C11.475 25.05 11.7375 24.7874 11.7375 24.4499V22.35C12.75 22.0125 13.275 20.925 12.9375 19.95C12.675 19.1625 11.9625 18.6375 11.1375 18.6375Z" fill="black"/>
<path d="M11.775 13.5374H16.35V18.2999H17.475V12.4124H11.775V13.5374Z" fill="black"/>
</svg>
