<svg width="28" height="28" viewBox="0 0 28 28" fill="none" xmlns="http://www.w3.org/2000/svg">
<path d="M27.4532 26.7737L19.6247 18.945C21.5546 16.8922 22.6295 14.1809 22.6304 11.3633C22.6304 5.2278 17.6391 0.236572 11.5036 0.236572C5.36809 0.236572 0.376862 5.2278 0.376862 11.3633C0.376862 17.4988 5.36809 22.4901 11.5036 22.4901C14.1843 22.4898 16.7739 21.5167 18.7914 19.7515L26.6333 27.5936C26.6871 27.6476 26.751 27.6904 26.8214 27.7197C26.8918 27.749 26.9673 27.7641 27.0435 27.7642C27.1197 27.7643 27.1952 27.7493 27.2657 27.7202C27.3361 27.691 27.4001 27.6483 27.454 27.5944C27.5079 27.5405 27.5507 27.4765 27.5798 27.406C27.6089 27.3356 27.6239 27.2601 27.6238 27.1839C27.6237 27.1076 27.6086 27.0322 27.5793 26.9618C27.5501 26.8914 27.5072 26.8275 27.4532 26.7737ZM11.5036 21.3303C6.0077 21.3303 1.53661 16.8593 1.53661 11.3633C1.53661 5.86743 6.0077 1.39632 11.5036 1.39632C16.9995 1.39632 21.4706 5.86741 21.4706 11.3633C21.4706 16.8592 16.9995 21.3303 11.5036 21.3303Z" fill="#16172C"/>
<path d="M17.2292 9.62011L17.2956 9.78078C17.3547 9.92272 17.4676 10.0354 17.6097 10.0942C17.7517 10.1529 17.9113 10.1528 18.0533 10.094C18.1953 10.0352 18.3082 9.92248 18.3672 9.78052C18.4262 9.63855 18.4264 9.47899 18.3678 9.33687L18.0794 8.64073V8.64009C18.0794 8.63984 18.0792 8.6397 18.0789 8.63951L17.7905 7.94279C17.7615 7.87226 17.7188 7.80816 17.6649 7.75415C17.6111 7.70014 17.5471 7.65728 17.4766 7.62802C17.4062 7.59876 17.3307 7.58368 17.2544 7.58363C17.1781 7.58359 17.1026 7.59859 17.0321 7.62777C16.9616 7.65695 16.8976 7.69973 16.8437 7.75368C16.7898 7.80763 16.747 7.87168 16.7179 7.94217C16.6887 8.01267 16.6738 8.08821 16.6738 8.16449C16.6739 8.24076 16.689 8.31628 16.7183 8.3867L16.785 8.5479L15.4628 9.09533C15.4497 9.10073 15.4414 9.11192 15.4288 9.11818C15.0297 8.41836 14.4499 7.83866 13.75 7.4397C13.7564 7.42709 13.7662 7.41736 13.7716 7.40411L14.3195 6.082L14.4802 6.14858C14.6224 6.20745 14.7821 6.20742 14.9243 6.14851C15.0665 6.0896 15.1794 5.97662 15.2383 5.83444C15.2971 5.69226 15.2971 5.53251 15.2382 5.39035C15.1793 5.24819 15.0663 5.13525 14.9241 5.07638L13.5306 4.49909C13.4602 4.46979 13.3846 4.45467 13.3084 4.45459C13.2321 4.45451 13.1565 4.46947 13.0861 4.49861C13.0156 4.52775 12.9515 4.57051 12.8976 4.62443C12.8436 4.67835 12.8008 4.74238 12.7716 4.81286C12.7425 4.88333 12.7275 4.95887 12.7275 5.03515C12.7276 5.11143 12.7426 5.18695 12.7719 5.25739C12.8012 5.32783 12.844 5.39181 12.898 5.44567C12.952 5.49954 13.0161 5.54222 13.0867 5.57128L13.2473 5.63783L12.6994 6.96019C12.6937 6.97358 12.6958 6.98749 12.6914 7.00093C11.9138 6.78779 11.0932 6.78759 10.3155 7.00035C10.3112 6.98707 10.3132 6.97331 10.3078 6.96018L9.75987 5.63795L9.92105 5.57126C9.99206 5.54254 10.0567 5.50005 10.1112 5.44623C10.1657 5.39241 10.209 5.32833 10.2386 5.25769C10.2682 5.18704 10.2836 5.11124 10.2837 5.03464C10.2839 4.95804 10.2689 4.88216 10.2396 4.81139C10.2103 4.74062 10.1673 4.67635 10.113 4.62229C10.0587 4.56823 9.99431 4.52545 9.92343 4.49641C9.85254 4.46738 9.77661 4.45267 9.70001 4.45314C9.62341 4.4536 9.54766 4.46922 9.47713 4.49911L8.08307 5.0764C8.01267 5.10555 7.9487 5.14828 7.89481 5.20215C7.84092 5.25602 7.79817 5.31998 7.769 5.39037C7.73983 5.46076 7.72481 5.53621 7.7248 5.61241C7.72478 5.68861 7.73978 5.76406 7.76893 5.83446C7.79807 5.90486 7.8408 5.96883 7.89467 6.02272C7.94855 6.07661 8.0125 6.11936 8.08289 6.14853C8.15329 6.1777 8.22873 6.19272 8.30493 6.19274C8.38113 6.19275 8.45658 6.17775 8.52698 6.14861L8.68766 6.08203L9.23561 7.40413C9.24101 7.41721 9.25054 7.42679 9.2567 7.43929C8.55717 7.83875 7.97773 8.41871 7.57891 9.11861C7.56629 9.11216 7.55781 9.10084 7.5444 9.09532L6.22218 8.54775L6.28887 8.3867C6.34774 8.24452 6.34771 8.08477 6.2888 7.94261C6.22989 7.80044 6.11691 7.68751 5.97473 7.62864C5.83255 7.56977 5.6728 7.5698 5.53064 7.62871C5.38848 7.68762 5.27554 7.8006 5.21667 7.94278L4.63938 9.33684C4.61008 9.40727 4.59496 9.48278 4.59488 9.55906C4.5948 9.63534 4.60976 9.71088 4.6389 9.78137C4.66804 9.85186 4.7108 9.91592 4.76472 9.96987C4.81864 10.0238 4.88267 10.0666 4.95315 10.0958C5.02363 10.125 5.09916 10.14 5.17544 10.1399C5.25172 10.1399 5.32724 10.1248 5.39768 10.0955C5.46812 10.0663 5.5321 10.0234 5.58597 9.9694C5.63983 9.91539 5.68251 9.85128 5.71157 9.78076L5.77826 9.61995L7.10048 10.1675C7.11388 10.173 7.12778 10.1712 7.14117 10.1756C6.92802 10.9531 6.92784 11.7737 7.14066 12.5513C7.12727 12.5557 7.11362 12.5537 7.10048 12.5591L5.77802 13.107L5.71159 12.9464C5.68253 12.8758 5.63984 12.8117 5.58598 12.7577C5.53212 12.7037 5.46814 12.6609 5.3977 12.6316C5.32726 12.6023 5.25174 12.5873 5.17546 12.5872C5.09918 12.5872 5.02364 12.6022 4.95317 12.6314C4.88269 12.6605 4.81866 12.7033 4.76474 12.7573C4.71082 12.8112 4.66806 12.8753 4.63892 12.9458C4.60977 13.0162 4.59482 13.0918 4.5949 13.1681C4.59498 13.2443 4.6101 13.3199 4.63939 13.3903L5.21669 14.7838C5.27556 14.926 5.38849 15.039 5.53066 15.0979C5.67282 15.1568 5.83257 15.1568 5.97475 15.098C6.11693 15.0391 6.22991 14.9262 6.28882 14.784C6.34773 14.6418 6.34776 14.4821 6.28889 14.3399L6.2222 14.1791L7.54442 13.6313C7.55755 13.6258 7.56579 13.6147 7.5784 13.6084C7.97778 14.3089 8.55818 14.889 9.2588 15.2881C9.25235 15.3009 9.24129 15.3092 9.23562 15.3225L8.68794 16.6447L8.527 16.578C8.4566 16.5489 8.38115 16.5339 8.30495 16.5339C8.22875 16.5339 8.1533 16.5489 8.08291 16.5781C8.01252 16.6073 7.94856 16.65 7.89469 16.7039C7.84082 16.7578 7.79809 16.8218 7.76895 16.8922C7.7398 16.9626 7.7248 17.038 7.72481 17.1142C7.72483 17.1904 7.73985 17.2659 7.76902 17.3363C7.79819 17.4067 7.84094 17.4706 7.89483 17.5245C7.94872 17.5784 8.01269 17.6211 8.08309 17.6502L8.77832 17.9382C8.77909 17.9384 8.77935 17.9389 8.77986 17.9391C8.78038 17.9394 8.78089 17.9393 8.78166 17.9395L9.47717 18.2275C9.54761 18.2569 9.62316 18.2721 9.69948 18.2722C9.7758 18.2724 9.8514 18.2574 9.92194 18.2283C9.99249 18.1992 10.0566 18.1564 10.1106 18.1025C10.1646 18.0485 10.2074 17.9845 10.2366 17.914C10.2658 17.8434 10.2808 17.7679 10.2807 17.6915C10.2807 17.6152 10.2655 17.5397 10.2362 17.4692C10.2069 17.3987 10.164 17.3347 10.1099 17.2809C10.0558 17.227 9.99167 17.1844 9.92108 17.1553L9.76015 17.0886L10.3078 15.7664C10.3132 15.7532 10.3114 15.7394 10.3158 15.726C11.0934 15.9392 11.914 15.9394 12.6917 15.7266C12.6961 15.7398 12.694 15.7534 12.6994 15.7664L13.2471 17.0889L13.0867 17.1553C13.0162 17.1844 12.9521 17.2271 12.8981 17.2809C12.844 17.3348 12.8012 17.3988 12.7719 17.4692C12.7427 17.5397 12.7276 17.6152 12.7275 17.6915C12.7275 17.7677 12.7425 17.8433 12.7717 17.9138C12.8008 17.9842 12.8436 18.0483 12.8976 18.1022C12.9515 18.1561 13.0156 18.1989 13.0861 18.228C13.1566 18.2572 13.2321 18.2721 13.3084 18.272C13.3847 18.272 13.4602 18.2568 13.5306 18.2275L14.2261 17.9394C14.2265 17.9393 14.227 17.9392 14.2274 17.9391C14.2279 17.939 14.2279 17.9386 14.2284 17.9385L14.9242 17.6502C14.9946 17.6211 15.0586 17.5784 15.1124 17.5245C15.1663 17.4706 15.2091 17.4067 15.2382 17.3363C15.2674 17.2659 15.2824 17.1904 15.2825 17.1142C15.2825 17.038 15.2675 16.9626 15.2383 16.8922C15.2092 16.8218 15.1664 16.7578 15.1126 16.7039C15.0587 16.65 14.9947 16.6073 14.9244 16.5781C14.854 16.5489 14.7785 16.5339 14.7023 16.5339C14.6261 16.5339 14.5507 16.5489 14.4803 16.578L14.3193 16.6447L13.7716 15.3225C13.7662 15.3094 13.7551 15.3011 13.7489 15.2886C14.4493 14.8892 15.0294 14.3088 15.4286 13.6082C15.4412 13.6146 15.4494 13.6258 15.4628 13.6313L16.785 14.179L16.7183 14.3399C16.689 14.4104 16.6739 14.4859 16.6738 14.5621C16.6738 14.6384 16.6887 14.714 16.7179 14.7845C16.747 14.8549 16.7898 14.919 16.8437 14.9729C16.8976 15.0269 16.9616 15.0697 17.0321 15.0989C17.1026 15.128 17.1781 15.143 17.2544 15.143C17.3307 15.1429 17.4062 15.1279 17.4766 15.0986C17.5471 15.0693 17.6111 15.0265 17.6649 14.9725C17.7188 14.9185 17.7615 14.8544 17.7905 14.7838L18.0787 14.0884L18.0794 14.0871C18.0797 14.0867 18.0794 14.0863 18.0797 14.0859L18.3678 13.3903C18.4264 13.2482 18.4262 13.0886 18.3672 12.9467C18.3082 12.8047 18.1953 12.6919 18.0533 12.6331C17.9113 12.5743 17.7517 12.5743 17.6097 12.633C17.4676 12.6917 17.3547 12.8044 17.2956 12.9464L17.2292 13.1069L15.9067 12.5591C15.8933 12.5537 15.8797 12.5556 15.8663 12.5513C16.0793 11.7737 16.0795 10.9532 15.8668 10.1755C15.8799 10.1711 15.8936 10.173 15.9067 10.1675L17.2292 9.62011Z" fill="#16172C"/>
</svg>
