<svg width="30" height="31" viewBox="0 0 30 31" fill="none" xmlns="http://www.w3.org/2000/svg">
<path d="M28.5175 11.9041L27.485 4.97041C27.4396 4.66553 27.2902 4.3875 27.0636 4.1866C26.8371 3.9857 26.5485 3.8752 26.25 3.87508C19.4162 3.87508 15.9137 0.408245 15.8837 0.378537C15.6495 0.137963 15.3327 0.00292969 15.0025 0.00292969C14.6723 0.00292969 14.3554 0.137963 14.1212 0.378537C14.0862 0.408245 10.5837 3.87508 3.75 3.87508C3.45148 3.8752 3.16287 3.9857 2.93635 4.1866C2.70983 4.3875 2.56037 4.66553 2.515 4.97041L1.4825 11.9041C1.01939 15.0538 1.50414 18.2744 2.87112 21.13C4.23809 23.9856 6.42125 26.3381 9.125 27.8691L14.4 30.8399C14.5837 30.9435 14.7895 30.9977 14.9987 30.9977C15.208 30.9977 15.4138 30.9435 15.5975 30.8399L20.8725 27.8691C23.5767 26.3385 25.7604 23.9861 27.1278 21.1305C28.4953 18.2749 28.9804 15.054 28.5175 11.9041ZM19.6775 25.5957L15 28.2372L10.3225 25.6009C8.0684 24.3258 6.24797 22.3658 5.1077 19.9861C3.96743 17.6064 3.56241 14.9222 3.9475 12.2967L4.8225 6.43129C8.47211 6.34684 12.0149 5.14229 15 2.97091C17.9839 5.14202 21.5253 6.34699 25.1737 6.43258L26.0487 12.2967C26.4342 14.9217 26.0297 17.6057 24.8901 19.9853C23.7506 22.365 21.9309 24.3253 19.6775 25.6009V25.5957Z" fill="black"/>
<path d="M19.1163 10.7117L12.5 17.5485L10.8838 15.8784C10.7685 15.755 10.6305 15.6566 10.478 15.5889C10.3255 15.5212 10.1615 15.4856 9.99551 15.4841C9.82954 15.4826 9.66494 15.5153 9.51132 15.5802C9.3577 15.6452 9.21813 15.7411 9.10077 15.8624C8.9834 15.9836 8.89058 16.1279 8.82773 16.2866C8.76488 16.4453 8.73325 16.6154 8.7347 16.7869C8.73614 16.9584 8.77062 17.1279 8.83613 17.2855C8.90164 17.4431 8.99687 17.5856 9.11626 17.7048L11.6163 20.2881C11.8507 20.5303 12.1686 20.6663 12.5 20.6663C12.8315 20.6663 13.1493 20.5303 13.3838 20.2881L20.8838 12.5381C21.1115 12.2945 21.2375 11.9682 21.2346 11.6296C21.2318 11.2909 21.1003 10.9669 20.8685 10.7274C20.6368 10.488 20.3233 10.3521 19.9955 10.3492C19.6678 10.3462 19.352 10.4764 19.1163 10.7117Z" fill="black"/>
</svg>
